<svg xmlns="http://www.w3.org/2000/svg" width="215px" height="41px" viewBox="0 0 567 108" version="1.1"><g stroke="none" stroke-width="1" fill="none" fill-rule="evenodd"><rect fill="#F9AE00" x="345.87" y="0" width="12.04" height="107.59"></rect><path d="M57,26.52 C56.8017933,26.3593647 56.5182067,26.3593647 56.32,26.52 L29.19,43.3 L2,26.52 C1.80498974,26.3609342 1.52501026,26.3609342 1.33,26.52 C1.12707379,26.6445363 0.991137491,26.8539517 0.96,27.09 L0.96,80.09 C0.965372136,80.4633058 1.26669422,80.7646279 1.64,80.77 L15,80.77 C15.3733058,80.7646279 15.6746279,80.4633058 15.68,80.09 L15.68,51 L28.6,58.86 C28.8020199,58.9933776 29.0379515,59.0662388 29.28,59.07 C29.5160133,59.0349275 29.7453088,58.9641157 29.96,58.86 C29.96,58.86 57,42.52 57.11,42.36 C57.22,42.2 57.43,41.99 57.43,41.53 C57.43,41.37 57.43,27.14 57.43,27.14 C57.4553499,26.8746964 57.3055311,26.6236488 57.06,26.52" fill="#FFFFFF"></path><path d="M57,48.25 C56.8017933,48.0893647 56.5182067,48.0893647 56.32,48.25 L43.2,56.16 C42.83579,56.3216045 42.6233718,56.7055914 42.68,57.1 L42.68,80.1 C42.6743957,80.2820074 42.7442372,80.4582434 42.8729969,80.5870031 C43.0017566,80.7157628 43.1779926,80.7856043 43.36,80.78 L56.65,80.78 C57.0193953,80.769325 57.3147984,80.4695129 57.32,80.1 L57.32,48.87 C57.3555375,48.6189952 57.2321264,48.3721729 57.01,48.25" fill="#FFFFFF"></path><path d="M123,26.83 L81.5,26.83 C81.1244464,26.83 80.82,27.1344464 80.82,27.51 L80.82,80.08 C80.82,80.4555536 81.1244464,80.76 81.5,80.76 L123,80.76 C123.375554,80.76 123.68,80.4555536 123.68,80.08 L123.68,68.15 C123.682725,67.9688312 123.611957,67.7942829 123.483837,67.6661627 C123.355717,67.5380425 123.181169,67.4672752 123,67.47 L96,67.47 C95.6244464,67.47 95.32,67.1655536 95.32,66.79 L95.32,40.79 C95.32,40.4144464 95.6244464,40.11 96,40.11 L123,40.11 C123.181169,40.1127248 123.355717,40.0419575 123.483837,39.9138373 C123.611957,39.7857171 123.682725,39.6111688 123.68,39.43 L123.68,27.51 C123.68,27.1344464 123.375554,26.83 123,26.83" fill="#FFFFFF"></path><path d="M100.67,48 L120.52,48 C120.699421,47.9973218 120.872419,48.0667267 121.000239,48.1926676 C121.12806,48.3186084 121.20002,48.4905587 121.2,48.67 L121.2,58.82 C121.202725,59.0011688 121.131957,59.1757171 121.003837,59.3038373 C120.875717,59.4319575 120.701169,59.5027248 120.52,59.5 L100.67,59.5 C100.294446,59.5 99.99,59.1955536 99.99,58.82 L99.99,48.66 C99.9954659,48.2883574 100.298317,47.9899598 100.67,47.99" fill="#FFFFFF"></path><path d="M143.6,26.83 L190.5,26.83 C190.871643,26.8354659 191.17004,27.1383172 191.17,27.51 L191.17,39.44 C191.172678,39.6194213 191.103273,39.7924188 190.977332,39.9202393 C190.851392,40.0480598 190.679441,40.12002 190.5,40.12 L143.6,40.12 C143.420559,40.12002 143.248608,40.0480598 143.122668,39.9202393 C142.996727,39.7924188 142.927322,39.6194213 142.93,39.44 L142.93,27.51 C142.92996,27.1383172 143.228357,26.8354659 143.6,26.83" fill="#FFFFFF"></path><path d="M174.33,45.47 L174.33,80.07 C174.33,80.4455536 174.025554,80.75 173.65,80.75 L160.52,80.75 C160.146694,80.7446279 159.845372,80.4433058 159.84,80.07 L159.84,45.47 C159.845466,45.0983574 160.148317,44.7999598 160.52,44.8 L173.65,44.8 C173.829421,44.7973218 174.002419,44.8667267 174.130239,44.9926676 C174.25806,45.1186084 174.33002,45.2905587 174.33,45.47" fill="#FFFFFF"></path><path d="M223.68,27.51 L223.68,80.08 C223.68,80.4555536 223.375554,80.76 223,80.76 L209.87,80.76 C209.498357,80.7545341 209.19996,80.4516828 209.2,80.08 L209.2,27.51 C209.19996,27.1383172 209.498357,26.8354659 209.87,26.83 L223,26.83 C223.375554,26.83 223.68,27.1344464 223.68,27.51" fill="#FFFFFF"></path><path d="M228.58,27.51 L228.58,39.44 C228.58,39.8155536 228.884446,40.12 229.26,40.12 L235.46,40.12 C235.46,40.12 241.55,40.22 241.55,46.53 C241.55,52.84 235.09,52.88 235.09,52.88 L229.31,52.88 C228.936694,52.8853721 228.635372,53.1866942 228.63,53.56 L228.63,64.5 C228.628541,64.6362094 228.67058,64.7693314 228.75,64.88 L239.27,80.46 C239.396792,80.6450971 239.605661,80.7569915 239.83,80.76 L254.83,80.76 C255.063487,80.749808 255.27538,80.6204265 255.391114,80.417385 C255.506848,80.2143435 255.510203,79.9660955 255.4,79.76 L244.7,62.76 C244.582693,62.5884723 244.553021,62.3717139 244.619913,62.1749705 C244.686806,61.9782271 244.842452,61.824477 245.04,61.76 C247.7,60.76 256.04,56.76 256.04,44.83 C256.04,30.6 244.94,26.83 237.44,26.83 L229.26,26.83 C229.078831,26.8272752 228.904283,26.8980425 228.776163,27.0261627 C228.648043,27.1542829 228.577275,27.3288312 228.58,27.51" fill="#FFFFFF"></path><path d="M301.73,40.27 C308.064031,40.2760639 313.56045,44.6417197 315,50.81 C315.077667,51.1108076 315.349328,51.3207275 315.66,51.32 L328.95,51.32 C329.143361,51.3184999 329.326938,51.2347502 329.45481,51.0897012 C329.582682,50.9446521 329.642755,50.7520228 329.62,50.56 C327.910155,36.5076573 315.980985,25.9420075 301.825,25.9420075 C287.669015,25.9420075 275.739845,36.5076573 274.03,50.56 C274.007245,50.7520228 274.067318,50.9446521 274.19519,51.0897012 C274.323062,51.2347502 274.506639,51.3184999 274.7,51.32 L287.98,51.32 C288.296544,51.3184865 288.570177,51.0987506 288.64,50.79 C289.981769,44.6217943 295.457644,40.2344218 301.77,40.27" fill="#FFFFFF"></path><path d="M301.73,67.37 C295.354809,67.3650018 289.844021,62.919744 288.49,56.69 C288.427292,56.3824699 288.153794,56.1636718 287.84,56.17 L274.55,56.17 C274.357534,56.1686224 274.173771,56.2500827 274.045545,56.3936199 C273.917318,56.5371571 273.857013,56.7289068 273.88,56.92 C275.570835,70.9906388 287.508134,81.5793414 301.68,81.5793414 C315.851866,81.5793414 327.789165,70.9906388 329.48,56.92 C329.499714,56.7295954 329.438261,56.5397003 329.310733,56.396945 C329.183205,56.2541896 329.001414,56.1717972 328.81,56.17 L315.58,56.17 C315.263829,56.1628208 314.987002,56.3809269 314.92,56.69 C313.587087,62.9119919 308.093156,67.360452 301.73,67.37" fill="#FFFFFF"></path><path d="M467.92,40.27 C474.240355,40.2909305 479.717166,44.6541641 481.15,50.81 C481.227667,51.1108076 481.499328,51.3207275 481.81,51.32 L495.1,51.32 C495.293361,51.3184999 495.476938,51.2347502 495.60481,51.0897012 C495.732682,50.9446521 495.792755,50.7520228 495.77,50.56 C494.060155,36.5076573 482.130985,25.9420075 467.975,25.9420075 C453.819015,25.9420075 441.889845,36.5076573 440.18,50.56 C440.157245,50.7520228 440.217318,50.9446521 440.34519,51.0897012 C440.473062,51.2347502 440.656639,51.3184999 440.85,51.32 L454.13,51.32 C454.443583,51.319581 454.716216,51.1047789 454.79,50.8 C456.158474,44.6469243 461.616583,40.2696288 467.92,40.27" fill="#FFFFFF"></path><path d="M467.92,67.37 C461.545878,67.3678813 456.03638,62.9203045 454.69,56.69 C454.619523,56.3831131 454.344858,56.166711 454.03,56.17 L440.8,56.17 C440.606843,56.1689735 440.422363,56.2501425 440.29262,56.393242 C440.162876,56.5363414 440.100113,56.7278664 440.12,56.92 C441.810835,70.9906388 453.748134,81.5793414 467.92,81.5793414 C482.091866,81.5793414 494.029165,70.9906388 495.72,56.92 C495.742987,56.7289068 495.682682,56.5371571 495.554455,56.3936199 C495.426229,56.2500827 495.242466,56.1686224 495.05,56.17 L481.82,56.17 C481.505142,56.166711 481.230477,56.3831131 481.16,56.69 C479.823166,62.9303354 474.301905,67.3840413 467.92,67.37" fill="#FFFFFF"></path><path d="M566,26.52 C565.801793,26.3593647 565.518207,26.3593647 565.32,26.52 L538.16,43.3 L511,26.52 C510.801793,26.3593647 510.518207,26.3593647 510.32,26.52 C510.122876,26.648663 509.991474,26.8567157 509.96,27.09 L509.96,80.09 C509.965372,80.4633058 510.266694,80.7646279 510.64,80.77 L523.92,80.77 C524.293306,80.7646279 524.594628,80.4633058 524.6,80.09 L524.6,51 L537.52,58.86 C537.72202,58.9933776 537.957952,59.0662388 538.2,59.07 C538.436013,59.0349275 538.665309,58.9641157 538.88,58.86 C538.88,58.86 565.88,42.51 566.07,42.35 C566.26,42.19 566.39,41.98 566.39,41.52 C566.33,41.36 566.33,27.13 566.33,27.13 C566.360239,26.8664778 566.213854,26.6143713 565.97,26.51" fill="#FFFFFF"></path><path d="M566,48.25 C565.801793,48.0893647 565.518207,48.0893647 565.32,48.25 L552.19,56.16 C551.82579,56.3216045 551.613372,56.7055914 551.67,57.1 L551.67,80.1 C551.664396,80.2820074 551.734237,80.4582434 551.862997,80.5870031 C551.991757,80.7157628 552.167993,80.7856043 552.35,80.78 L565.63,80.78 C566.003306,80.7746279 566.304628,80.4733058 566.31,80.1 L566.31,48.87 C566.342639,48.6194757 566.220003,48.3742036 566,48.25" fill="#FFFFFF"></path><path d="M378.1,42 L378.1,80.07 C378.1,80.2577768 378.252223,80.41 378.44,80.41 L392.44,80.41 C392.629461,80.4100773 392.784587,80.2593835 392.79,80.07 L392.79,59.55 C392.789597,59.4726305 392.761177,59.3980269 392.71,59.34 L378.71,41.74 C378.619997,41.6220721 378.463924,41.5761126 378.324373,41.6264425 C378.184822,41.6767723 378.094012,41.8117713 378.1,41.96" fill="#FFFFFF"></path><path d="M410.34,26.94 L410.34,52.51 C410.341456,52.6563571 410.249084,52.7872215 410.110691,52.834865 C409.972298,52.8825085 409.818946,52.8362378 409.73,52.72 L389.12,26.72 C389.052361,26.6405289 388.954306,26.5933174 388.85,26.59 L378.44,26.59 C378.250617,26.5954132 378.099923,26.7505392 378.1,26.94 L378.1,33.07 C378.09696,33.1492532 378.121721,33.2270757 378.17,33.29 L415.74,80.29 C415.807639,80.3694711 415.905694,80.4166826 416.01,80.42 L424.75,80.42 C424.840174,80.42 424.926654,80.3841787 424.990416,80.3204163 C425.054179,80.2566539 425.09,80.1701736 425.09,80.08 L425.09,26.94 C425.090077,26.7505392 424.939383,26.5954132 424.75,26.59 L410.69,26.59 C410.4967,26.59 410.34,26.7467003 410.34,26.94" fill="#FFFFFF"></path></g></svg>